<svg fill="#000000" xmlns="http://www.w3.org/2000/svg"  viewBox="0 0 32 32" width="64px" height="64px"><path d="M16,4C9.3732309,4,4,9.3732309,4,16c0,5.0838451,3.1629233,9.4260006,7.6269226,11.1738453	c-0.1047688-0.9489231-0.1998463-2.4060001,0.0419998-3.4421539c0.2178469-0.9359989,1.4072313-5.964922,1.4072313-5.964922	s-0.3590775-0.7190762-0.3590775-1.7810774c0-1.6689224,0.9669228-2.9141541,2.1710777-2.9141541	c1.0241537,0,1.5180006,0.7689228,1.5180006,1.6901541c0,1.0301542-0.6549234,2.568924-0.994154,3.9950771	c-0.2829237,1.1949234,0.5990772,2.1692314,1.7769222,2.1692314c2.1327686,0,3.7721539-2.2490788,3.7721539-5.4950771	c0-2.8730774-2.0639992-4.8821545-5.0118465-4.8821545c-3.4139996,0-5.4180002,2.5610771-5.4180002,5.2080002	c0,1.0310764,0.396924,2.1369228,0.8930769,2.7387676c0.097846,0.1190777,0.112154,0.2229252,0.0830774,0.3438454	c-0.0909233,0.3789234-0.2930775,1.1940022-0.333231,1.3610783c-0.0521545,0.2201538-0.1740007,0.2658463-0.4010763,0.1601543	c-1.4990768-0.6978474-2.4360008-2.8887691-2.4360008-4.6490774c0-3.7850771,2.7498465-7.2618456,7.9292316-7.2618456	c4.1630764,0,7.3979988,2.9658451,7.3979988,6.9309225c0,4.1358461-2.6081543,7.4639997-6.2270775,7.4639997	c-1.2161522,0-2.358922-0.6318455-2.7498455-1.3781528c0,0-0.6018467,2.2910767-0.7481537,2.8527679	c-0.2709236,1.0421543-1.0019999,2.3492317-1.4921541,3.1458454C13.5700006,27.8121529,14.7630768,28,16,28	c6.62677,0,12-5.37323,12-12S22.6272316,4,16,4z"/></svg>